<svg width="20" height="19" viewBox="0 0 20 19" fill="none" xmlns="http://www.w3.org/2000/svg">
<path d="M10 5.81056L11.6352 3.48845C12.2721 2.58412 13.3179 2 14.5 2C16.433 2 18 3.567 18 5.5C18 8.3788 16.0407 11.1215 13.643 13.3358C12.4877 14.4027 11.3237 15.2603 10.4451 15.8521C10.2861 15.9592 10.1371 16.0571 9.9999 16.1456C9.8627 16.0571 9.7137 15.9592 9.5547 15.8521C8.6761 15.2604 7.51216 14.4028 6.35685 13.3358C3.95926 11.1216 2 8.3788 2 5.5C2 3.567 3.567 2 5.5 2C6.68209 2 7.72794 2.58412 8.3648 3.48845L10 5.81056ZM8.5557 0.92626C7.68172 0.3412 6.63071 0 5.5 0C2.46243 0 0 2.46243 0 5.5C0 13 9.9999 18.4852 9.9999 18.4852C9.9999 18.4852 20 13 20 5.5C20 2.46243 17.5376 0 14.5 0C13.3693 0 12.3183 0.3412 11.4443 0.92626C10.8805 1.3037 10.3903 1.78263 10 2.33692C9.6097 1.78263 9.1195 1.3037 8.5557 0.92626Z" fill="black"/>
</svg>
